<?xml version="1.0" encoding="UTF-8"?><svg id="Layer_2" xmlns="http://www.w3.org/2000/svg" xmlns:xlink="http://www.w3.org/1999/xlink" viewBox="0 0 412.45 412.45"><defs><style>.cls-1{fill:url(#linear-gradient-2);}.cls-2{fill:#181716;}.cls-3{fill:url(#linear-gradient);}</style><linearGradient id="linear-gradient" x1="188.56" y1="255.78" x2="236.58" y2="303.79" gradientUnits="userSpaceOnUse"><stop offset="0" stop-color="#a81b79"/><stop offset="1" stop-color="#f5de58"/></linearGradient><linearGradient id="linear-gradient-2" x1="0" y1="0" x2="412.45" y2="412.45" xlink:href="#linear-gradient"/></defs><g id="Layer_1-2"><g><g><path class="cls-3" d="m229.49,250.43c-5.73-4.17-11.73-6.25-17.98-6.25-4.62,0-8.79,1-12.51,3.02-3.72,2.01-6.92,4.69-9.61,8.04-2.68,3.35-4.73,7.19-6.14,11.5-1.42,4.32-2.12,8.79-2.12,13.4s.82,9.24,2.46,13.4c1.64,4.17,3.91,7.82,6.81,10.95,2.9,3.13,6.29,5.58,10.16,7.37,3.87,1.79,8.11,2.68,12.73,2.68,3.27,0,6.4-.52,9.38-1.56,2.98-1.04,5.73-2.46,8.26-4.24,2.53-1.79,4.76-3.87,6.7-6.25,1.93-2.38,3.42-4.91,4.47-7.59v-27.92c-2.68-6.85-6.89-12.36-12.62-16.53Z"/><path class="cls-1" d="m0,0v412.45h412.45V0H0Zm131.76,331.51c-9.23,5.66-20.33,8.49-33.28,8.49-9.53,0-18.09-1.64-25.69-4.91-7.59-3.27-14.07-7.71-19.43-13.29-5.36-5.58-9.49-12.06-12.4-19.43-2.9-7.37-4.36-15.08-4.36-23.12s1.41-15.93,4.24-23.23c2.83-7.29,6.92-13.7,12.29-19.21,5.36-5.51,11.84-9.9,19.43-13.18,7.59-3.27,16.16-4.91,25.69-4.91,12.81,0,23.71,2.76,32.72,8.26,9.01,5.51,15.75,12.73,20.22,21.67l-29.26,8.94c-2.53-4.32-5.88-7.63-10.05-9.94-4.17-2.31-8.79-3.46-13.85-3.46-4.32,0-8.34.86-12.06,2.57-3.72,1.71-6.96,4.1-9.72,7.15-2.76,3.05-4.91,6.74-6.48,11.06-1.56,4.32-2.35,9.08-2.35,14.3s.82,9.98,2.46,14.3c1.64,4.32,3.83,8.04,6.59,11.17,2.75,3.13,5.99,5.55,9.72,7.26,3.72,1.71,7.67,2.57,11.84,2.57,5.36,0,10.31-1.34,14.85-4.02,4.54-2.68,7.71-5.95,9.49-9.83l29.26,8.93c-4.02,8.94-10.65,16.23-19.88,21.89Zm140.28.67c0,8.63-1.64,16.38-4.91,23.23-3.28,6.85-7.78,12.66-13.51,17.42-5.73,4.76-12.59,8.41-20.55,10.95-7.97,2.53-16.64,3.8-26.02,3.8-12.81,0-23.57-2.12-32.28-6.37-8.71-4.24-16.19-10.24-22.45-17.98l16.31-15.86c4.47,5.51,10.09,9.83,16.86,12.96,6.77,3.13,13.96,4.69,21.56,4.69,4.61,0,9.05-.64,13.29-1.9,4.24-1.27,8-3.24,11.28-5.92,3.27-2.68,5.84-6.11,7.71-10.28,1.86-4.17,2.79-9.08,2.79-14.74v-14.74c-3.87,6.7-9.31,11.88-16.31,15.52-7,3.65-14.52,5.47-22.56,5.47s-15.04-1.56-21.44-4.69c-6.4-3.13-11.95-7.41-16.64-12.84-4.69-5.43-8.3-11.73-10.83-18.88-2.53-7.15-3.8-14.74-3.8-22.78,0-8.49,1.34-16.38,4.02-23.68,2.68-7.29,6.4-13.7,11.17-19.21,4.76-5.51,10.5-9.83,17.2-12.96,6.7-3.13,14.07-4.69,22.11-4.69,9.08,0,17.05,2.05,23.9,6.14,6.85,4.1,12.51,9.57,16.98,16.42v-20.55h26.13v111.46Z"/></g><g><path class="cls-2" d="m229.49,250.43c-5.73-4.17-11.73-6.25-17.98-6.25-4.62,0-8.79,1-12.51,3.02-3.72,2.01-6.92,4.69-9.61,8.04-2.68,3.35-4.73,7.19-6.14,11.5-1.42,4.32-2.12,8.79-2.12,13.4s.82,9.24,2.46,13.4c1.64,4.17,3.91,7.82,6.81,10.95,2.9,3.13,6.29,5.58,10.16,7.37,3.87,1.79,8.11,2.68,12.73,2.68,3.27,0,6.4-.52,9.38-1.56,2.98-1.04,5.73-2.46,8.26-4.24,2.53-1.79,4.76-3.87,6.7-6.25,1.93-2.38,3.42-4.91,4.47-7.59v-27.92c-2.68-6.85-6.89-12.36-12.62-16.53Z"/><path class="cls-2" d="m0,0v412.45h412.45V0H0Zm131.76,331.51c-9.23,5.66-20.33,8.49-33.28,8.49-9.53,0-18.09-1.64-25.69-4.91-7.59-3.27-14.07-7.71-19.43-13.29-5.36-5.58-9.49-12.06-12.4-19.43-2.9-7.37-4.36-15.08-4.36-23.12s1.41-15.93,4.24-23.23c2.83-7.29,6.92-13.7,12.29-19.21,5.36-5.51,11.84-9.9,19.43-13.18,7.59-3.27,16.16-4.91,25.69-4.91,12.81,0,23.71,2.76,32.72,8.26,9.01,5.51,15.75,12.73,20.22,21.67l-29.26,8.94c-2.53-4.32-5.88-7.63-10.05-9.94-4.17-2.31-8.79-3.46-13.85-3.46-4.32,0-8.34.86-12.06,2.57-3.72,1.71-6.96,4.1-9.72,7.15-2.76,3.05-4.91,6.74-6.48,11.06-1.56,4.32-2.35,9.08-2.35,14.3s.82,9.98,2.46,14.3c1.64,4.32,3.83,8.04,6.59,11.17,2.75,3.13,5.99,5.55,9.72,7.26,3.72,1.71,7.67,2.57,11.84,2.57,5.36,0,10.31-1.34,14.85-4.02,4.54-2.68,7.71-5.95,9.49-9.83l29.26,8.93c-4.02,8.94-10.65,16.23-19.88,21.89Zm140.28.67c0,8.63-1.64,16.38-4.91,23.23-3.28,6.85-7.78,12.66-13.51,17.42-5.73,4.76-12.59,8.41-20.55,10.95-7.97,2.53-16.64,3.8-26.02,3.8-12.81,0-23.57-2.12-32.28-6.37-8.71-4.24-16.19-10.24-22.45-17.98l16.31-15.86c4.47,5.51,10.09,9.83,16.86,12.96,6.77,3.13,13.96,4.69,21.56,4.69,4.61,0,9.05-.64,13.29-1.9,4.24-1.27,8-3.24,11.28-5.92,3.27-2.68,5.84-6.11,7.71-10.28,1.86-4.17,2.79-9.08,2.79-14.74v-14.74c-3.87,6.7-9.31,11.88-16.31,15.52-7,3.65-14.52,5.47-22.56,5.47s-15.04-1.56-21.44-4.69c-6.4-3.13-11.95-7.41-16.64-12.84-4.69-5.43-8.3-11.73-10.83-18.88-2.53-7.15-3.8-14.74-3.8-22.78,0-8.49,1.34-16.38,4.02-23.68,2.68-7.29,6.4-13.7,11.17-19.21,4.76-5.51,10.5-9.83,17.2-12.96,6.7-3.13,14.07-4.69,22.11-4.69,9.08,0,17.05,2.05,23.9,6.14,6.85,4.1,12.51,9.57,16.98,16.42v-20.55h26.13v111.46Z"/></g></g></g></svg>